{"title":"Spartacus.Blood.and.Sand.S01E12.HDTV.XviD.Revelations-Ipolitan","uid":5489190,"size":653790027,"categoryP":"video","categoryS":"tv_shows","magnet":"?xt=urn:btih:56722f79913b0164dc9fc477ca195e94c68ba267&amp;dn=Spartacus.Blood.and.Sand.S01E12.HDTV.XviD.Revelations-Ipolitan&amp;tr=udp%3A%2F%2Ftracker.openbittorrent.com%3A80&amp;tr=udp%3A%2F%2Fopen.demonii.com%3A1337&amp;tr=udp%3A%2F%2Ftracker.coppersurfer.tk%3A6969&amp;tr=udp%3A%2F%2Fexodus.desync.com%3A6969","seeders":0,"leechers":0,"uploader":"Ipolitan","files":3,"time":1270899126,"description":"Complete name : Spartacus.Blood.and.Sand.S01E12.HDTV.XviD.Revelations-Ipolitan/Spartacus.Blood.and.Sand.S01E12.HDTV.XviD.Revelations-Ipolitan.avi\n      Format : AVI\n      Format/Info : Audio Video Interleave\n      File size : 623 MiB\n      Duration : 53mn 16s\n      Overall bit rate : 1 636 Kbps\n      Writing application : MEncoder Sherpya-SVN-r30075-4.2.5\n      Writing library : MPlayer\n   Video\n      Format : MPEG-4 Visual\n      Format profile : Simple@L3\n      Format settings, BVOP : No\n      Format settings, QPel : No\n      Format settings, GMC : No warppoints\n      Format settings, Matrix : Default\n      Codec ID : XVID\n      Codec ID/Hint : XviD\n      Duration : 53mn 16s\n      Bit rate : 1 500 Kbps\n      Width : 1 280 pixels\n      Height : 720 pixels\n      Display aspect ratio : 16/9\n      Frame rate : 23.976 fps\n      Resolution : 24 bits\n      Colorimetry : 4:2:0\n      Scan type : Progressive\n      Bits/(Pixel*Frame) : 0.068\n      Stream size : 572 MiB (92%)\n      Writing library : XviD 50\n   Audio\n      Format : MPEG Audio\n      Format version : Version 1\n      Format profile : Layer 3\n      Codec ID : 55\n      Codec ID/Hint : MP3\n      Duration : 53mn 16s\n      Bit rate mode : Variable\n      Bit rate : 123 Kbps\n      Channel(s) : 2 channels\n      Sampling rate : 44.1 KHz\n      Resolution : 16 bits\n      Stream size : 47.0 MiB (8%)\n      Alignment : Aligned on interleaves\n      Interleave, duration : 26 ms (0.63 video frame)\n      Interleave, preload duration : 534 ms\n\n\n\nNO-RAR\n\n\nIPOLITAN - T h e  n e w   w o r l d   o f   k n o w l e d g e\n\nipolitan.wordpress com\n\n\nSeed and enjoy !\n\n\n","torrent":{"xt":"urn:btih:56722f79913b0164dc9fc477ca195e94c68ba267","amp;dn":"Spartacus.Blood.and.Sand.S01E12.HDTV.XviD.Revelations-Ipolitan","amp;tr":["udp%3A%2F%2Ftracker.openbittorrent.com%3A80","udp%3A%2F%2Fopen.demonii.com%3A1337","udp%3A%2F%2Ftracker.coppersurfer.tk%3A6969","udp%3A%2F%2Fexodus.desync.com%3A6969"],"infoHash":"56722f79913b0164dc9fc477ca195e94c68ba267","infoHashBuffer":{"type":"Buffer","data":[86,114,47,121,145,59,1,100,220,159,196,119,202,25,94,148,198,139,162,103]},"announce":[],"urlList":[]}}